<svg xmlns="http://www.w3.org/2000/svg" version="1.1" xmlns:xlink="http://www.w3.org/1999/xlink" xmlns:svgjs="http://svgjs.dev/svgjs" width="1500" height="208" viewBox="0 0 1500 208"><g transform="matrix(1,0,0,1,-0.9090909090909918,-0.5376761927422393)"><svg viewBox="0 0 396 55" data-background-color="#ffffff" preserveAspectRatio="xMidYMid meet" height="208" width="1500" xmlns="http://www.w3.org/2000/svg" xmlns:xlink="http://www.w3.org/1999/xlink"><g id="tight-bounds" transform="matrix(1,0,0,1,0.2400000000000091,0.14217399327318958)"><svg viewBox="0 0 395.52 54.71565201345361" height="54.71565201345361" width="395.52"><g><svg viewBox="0 0 484.52477984762675 67.02844166170603" height="54.71565201345361" width="395.52"><g><rect width="4.062226499518657" height="67.02844166170603" x="74.30845256402789" y="0" fill="#111111" opacity="1" stroke-width="0" stroke="transparent" fill-opacity="1" class="rect-yte-0" data-fill-palette-color="primary" rx="1%" id="yte-0" data-palette-color="#111111"></rect></g><g transform="matrix(1,0,0,1,89.0047798476268,0.16673741706891576)"><svg viewBox="0 0 395.52 66.6949668275682" height="66.6949668275682" width="395.52"><g id="textblocktransform"><svg viewBox="0 0 395.52 66.6949668275682" height="66.6949668275682" width="395.52" id="textblock"><g><svg viewBox="0 0 395.52 45.04524298988569" height="45.04524298988569" width="395.52"><g transform="matrix(1,0,0,1,0,0)"><svg width="395.52" viewBox="1.46 -33.28 296.88 33.82" height="45.04524298988569" data-palette-color="#111111"><path d="M26.98-28.98Q27.81-28.98 28.16-28.6 28.52-28.22 28.52-27.32L28.52-27.32Q28.52-26.42 28.16-26.04 27.81-25.66 26.98-25.66L26.98-25.66 25.32-25.66 16.82-12.01 16.82-3.32 22.34-3.32Q23.17-3.32 23.52-2.94 23.88-2.56 23.88-1.66L23.88-1.66Q23.88-0.76 23.52-0.38 23.17 0 22.34 0L22.34 0 7.64 0Q6.81 0 6.46-0.38 6.1-0.76 6.1-1.66L6.1-1.66Q6.1-2.56 6.46-2.94 6.81-3.32 7.64-3.32L7.64-3.32 13.16-3.32 13.16-12.01 4.71-25.66 3-25.66Q2.17-25.66 1.82-26.04 1.46-26.42 1.46-27.32L1.46-27.32Q1.46-28.22 1.82-28.6 2.17-28.98 3-28.98L3-28.98 11.16-28.98Q11.99-28.98 12.34-28.6 12.7-28.22 12.7-27.32L12.7-27.32Q12.7-26.42 12.34-26.04 11.99-25.66 11.16-25.66L11.16-25.66 8.89-25.66 14.99-15.67 21.14-25.66 19.56-25.66Q18.73-25.66 18.37-26.04 18.02-26.42 18.02-27.32L18.02-27.32Q18.02-28.22 18.37-28.6 18.73-28.98 19.56-28.98L19.56-28.98 26.98-28.98ZM44.97-23.1Q48.31-23.1 51-21.58 53.68-20.07 55.21-17.37 56.74-14.67 56.74-11.28L56.74-11.28Q56.74-7.89 55.21-5.19 53.68-2.49 51-0.98 48.31 0.54 44.97 0.54L44.97 0.54Q41.62 0.54 38.94-0.98 36.25-2.49 34.73-5.19 33.2-7.89 33.2-11.28L33.2-11.28Q33.2-14.67 34.73-17.37 36.25-20.07 38.94-21.58 41.62-23.1 44.97-23.1L44.97-23.1ZM44.97-19.48Q42.6-19.48 40.81-18.44 39.01-17.41 38.03-15.54 37.06-13.67 37.06-11.28L37.06-11.28Q37.06-8.89 38.03-7.02 39.01-5.15 40.81-4.11 42.6-3.08 44.97-3.08L44.97-3.08Q47.34-3.08 49.13-4.11 50.93-5.15 51.9-7.02 52.88-8.89 52.88-11.28L52.88-11.28Q52.88-13.67 51.9-15.54 50.93-17.41 49.13-18.44 47.34-19.48 44.97-19.48L44.97-19.48ZM105.56-28.98Q106.54-28.98 107.13-28.6 107.73-28.22 108.02-27.39L108.02-27.39 116.64-3.32 118.13-3.32Q118.96-3.32 119.32-2.94 119.67-2.56 119.67-1.66L119.67-1.66Q119.67-0.76 119.32-0.38 118.96 0 118.13 0L118.13 0 109.49 0Q108.66 0 108.31-0.38 107.95-0.76 107.95-1.66L107.95-1.66Q107.95-2.56 108.31-2.94 108.66-3.32 109.49-3.32L109.49-3.32 112.79-3.32 110.78-9.13 98.94-9.13 96.92-3.32 99.87-3.32Q100.7-3.32 101.05-2.94 101.41-2.56 101.41-1.66L101.41-1.66Q101.41-0.76 101.05-0.38 100.7 0 99.87 0L99.87 0 91.72 0Q90.89 0 90.53-0.38 90.18-0.76 90.18-1.66L90.18-1.66Q90.18-2.56 90.53-2.94 90.89-3.32 91.72-3.32L91.72-3.32 93.08-3.32 101.16-25.66 96.6-25.66Q95.77-25.66 95.41-26.04 95.06-26.42 95.06-27.32L95.06-27.32Q95.06-28.22 95.41-28.6 95.77-28.98 96.6-28.98L96.6-28.98 105.56-28.98ZM105.12-25.66L104.66-25.66 100.09-12.45 109.66-12.45 105.12-25.66ZM142.76-22.56Q143.59-22.56 143.95-22.18 144.3-21.8 144.3-20.9L144.3-20.9 144.3-3.32 146.3-3.32Q147.13-3.32 147.49-2.94 147.84-2.56 147.84-1.66L147.84-1.66Q147.84-0.76 147.49-0.38 147.13 0 146.3 0L146.3 0 142.42 0Q141.59 0 141.24-0.37 140.88-0.73 140.88-1.64L140.88-1.64 140.88-4.59Q139.27-2.1 137.11-0.78 134.95 0.54 132.46 0.54L132.46 0.54Q130.24 0.54 128.6-0.43 126.97-1.39 126.09-3.2 125.21-5 125.21-7.42L125.21-7.42 125.21-19.24 123.21-19.24Q122.38-19.24 122.02-19.62 121.67-20 121.67-20.9L121.67-20.9Q121.67-21.8 122.02-22.18 122.38-22.56 123.21-22.56L123.21-22.56 127.33-22.56Q128.16-22.56 128.52-22.18 128.87-21.8 128.87-20.9L128.87-20.9 128.87-7.79Q128.87-5.62 129.87-4.35 130.87-3.08 132.83-3.08L132.83-3.08Q134.9-3.08 136.7-4.27 138.49-5.47 139.57-7.57 140.64-9.67 140.64-12.26L140.64-12.26 140.64-19.24 137.17-19.24Q136.34-19.24 135.99-19.62 135.63-20 135.63-20.9L135.63-20.9Q135.63-21.8 135.99-22.18 136.34-22.56 137.17-22.56L137.17-22.56 142.76-22.56ZM173.67-23.1Q174.67-23.1 175.09-22.73 175.5-22.36 175.5-21.51L175.5-21.51 175.5-14.43Q175.5-13.57 175.09-13.21 174.67-12.84 173.67-12.84L173.67-12.84Q172.67-12.84 172.25-13.21 171.84-13.57 171.84-14.43L171.84-14.43Q171.84-15.92 171.06-17.07 170.28-18.21 168.73-18.85 167.18-19.48 165-19.48L165-19.48Q162.66-19.48 160.8-18.43 158.95-17.38 157.9-15.5 156.85-13.62 156.85-11.28L156.85-11.28Q156.85-8.91 157.84-7.04 158.83-5.18 160.62-4.13 162.41-3.08 164.76-3.08L164.76-3.08Q167-3.08 169.12-3.77 171.23-4.47 172.96-5.79L172.96-5.79Q173.47-6.18 173.91-6.18L173.91-6.18Q174.62-6.18 175.23-5.18L175.23-5.18Q175.6-4.57 175.6-4L175.6-4Q175.6-3.15 174.82-2.59L174.82-2.59Q172.86-1.12 170.2-0.29 167.54 0.54 164.76 0.54L164.76 0.54Q161.27 0.54 158.59-1 155.92-2.54 154.46-5.22 152.99-7.91 152.99-11.28L152.99-11.28Q152.99-14.65 154.48-17.33 155.97-20.02 158.64-21.56 161.32-23.1 164.76-23.1L164.76-23.1Q166.93-23.1 168.75-22.3 170.57-21.51 171.84-20.04L171.84-20.04 171.84-21.51Q171.84-22.36 172.25-22.73 172.67-23.1 173.67-23.1L173.67-23.1ZM191.05-29.52Q192.05-29.52 192.47-29.15 192.88-28.78 192.88-27.93L192.88-27.93 192.88-20.61 202.91-20.61Q203.74-20.61 204.1-20.23 204.45-19.85 204.45-18.95L204.45-18.95Q204.45-18.04 204.1-17.66 203.74-17.29 202.91-17.29L202.91-17.29 192.88-17.29 192.88-8.4Q192.88-5.62 193.84-4.32 194.81-3.03 197.2-3.03L197.2-3.03Q198.84-3.03 200.64-3.69 202.45-4.35 204.14-5.44L204.14-5.44Q204.48-5.69 204.89-5.69L204.89-5.69Q205.72-5.69 206.31-4.57L206.31-4.57Q206.63-3.93 206.63-3.47L206.63-3.47Q206.63-2.69 205.82-2.2L205.82-2.2Q203.92-1 201.57-0.23 199.23 0.54 197.2 0.54L197.2 0.54Q193.05 0.54 191.13-1.62 189.22-3.78 189.22-8.08L189.22-8.08 189.22-17.29 184.26-17.29Q183.43-17.29 183.08-17.66 182.72-18.04 182.72-18.95L182.72-18.95Q182.72-19.85 183.08-20.23 183.43-20.61 184.26-20.61L184.26-20.61 189.22-20.61 189.22-27.93Q189.22-28.78 189.63-29.15 190.05-29.52 191.05-29.52L191.05-29.52ZM225.71-22.56Q226.55-22.56 226.9-22.18 227.25-21.8 227.25-20.9L227.25-20.9 227.25-3.32 235.09-3.32Q235.92-3.32 236.27-2.94 236.63-2.56 236.63-1.66L236.63-1.66Q236.63-0.76 236.27-0.38 235.92 0 235.09 0L235.09 0 215.95 0Q215.12 0 214.77-0.38 214.41-0.76 214.41-1.66L214.41-1.66Q214.41-2.56 214.77-2.94 215.12-3.32 215.95-3.32L215.95-3.32 223.59-3.32 223.59-19.24 217.41-19.24Q216.58-19.24 216.23-19.62 215.88-20 215.88-20.9L215.88-20.9Q215.88-21.8 216.23-22.18 216.58-22.56 217.41-22.56L217.41-22.56 225.71-22.56ZM224.93-33.28Q226.28-33.28 226.76-32.92 227.25-32.57 227.25-31.69L227.25-31.69 227.25-28.52Q227.25-27.64 226.76-27.28 226.28-26.93 224.93-26.93L224.93-26.93Q223.59-26.93 223.1-27.28 222.61-27.64 222.61-28.52L222.61-28.52 222.61-31.69Q222.61-32.57 223.1-32.92 223.59-33.28 224.93-33.28L224.93-33.28ZM254.81-23.1Q258.16-23.1 260.84-21.58 263.53-20.07 265.06-17.37 266.58-14.67 266.58-11.28L266.58-11.28Q266.58-7.89 265.06-5.19 263.53-2.49 260.84-0.98 258.16 0.54 254.81 0.54L254.81 0.54Q251.47 0.54 248.78-0.98 246.1-2.49 244.57-5.19 243.05-7.89 243.05-11.28L243.05-11.28Q243.05-14.67 244.57-17.37 246.1-20.07 248.78-21.58 251.47-23.1 254.81-23.1L254.81-23.1ZM254.81-19.48Q252.45-19.48 250.65-18.44 248.86-17.41 247.88-15.54 246.9-13.67 246.9-11.28L246.9-11.28Q246.9-8.89 247.88-7.02 248.86-5.15 250.65-4.11 252.45-3.08 254.81-3.08L254.81-3.08Q257.18-3.08 258.98-4.11 260.77-5.15 261.75-7.02 262.72-8.89 262.72-11.28L262.72-11.28Q262.72-13.67 261.75-15.54 260.77-17.41 258.98-18.44 257.18-19.48 254.81-19.48L254.81-19.48ZM287.55-23.1Q289.77-23.1 291.41-22.13 293.04-21.17 293.92-19.36 294.8-17.55 294.8-15.14L294.8-15.14 294.8-3.32 296.8-3.32Q297.63-3.32 297.99-2.94 298.34-2.56 298.34-1.66L298.34-1.66Q298.34-0.76 297.99-0.38 297.63 0 296.8 0L296.8 0 288.89 0Q288.06 0 287.71-0.38 287.36-0.76 287.36-1.66L287.36-1.66Q287.36-2.56 287.71-2.94 288.06-3.32 288.89-3.32L288.89-3.32 291.14-3.32 291.14-14.77Q291.14-16.94 290.14-18.21 289.14-19.48 287.18-19.48L287.18-19.48Q285.11-19.48 283.31-18.29 281.52-17.09 280.45-14.99 279.37-12.89 279.37-10.3L279.37-10.3 279.37-3.32 281.62-3.32Q282.45-3.32 282.8-2.94 283.16-2.56 283.16-1.66L283.16-1.66Q283.16-0.76 282.8-0.38 282.45 0 281.62 0L281.62 0 273.71 0Q272.88 0 272.52-0.38 272.17-0.76 272.17-1.66L272.17-1.66Q272.17-2.56 272.52-2.94 272.88-3.32 273.71-3.32L273.71-3.32 275.71-3.32 275.71-19.24 273.22-19.24Q272.39-19.24 272.04-19.62 271.68-20 271.68-20.9L271.68-20.9Q271.68-21.8 272.04-22.18 272.39-22.56 273.22-22.56L273.22-22.56 277.59-22.56Q278.42-22.56 278.77-22.18 279.13-21.8 279.13-20.9L279.13-20.9 279.13-17.97Q280.74-20.46 282.9-21.78 285.06-23.1 287.55-23.1L287.55-23.1Z" opacity="1" transform="matrix(1,0,0,1,0,0)" fill="#111111" class="wordmark-text-0" data-fill-palette-color="primary" id="text-0"></path></svg></g></svg></g><g transform="matrix(1,0,0,1,0,55.67934377396595)"><svg viewBox="0 0 232.209792 11.01562305360225" height="11.01562305360225" width="232.209792"><g transform="matrix(1,0,0,1,0,0)"><svg width="232.209792" viewBox="4.85 -36.55 1013.83 48.099999999999994" height="11.01562305360225" data-palette-color="#111111"><path d="M14.4 0L4.85 0 4.85-32.95 13.75-32.95Q18.75-32.95 21.7-31.03 24.65-29.1 24.65-24.95L24.65-24.95Q24.65-22.35 23.35-20.43 22.05-18.5 19.55-17.75L19.55-17.75 19.55-17.55Q22.75-17 24.7-15.03 26.65-13.05 26.65-9.6L26.65-9.6Q26.65-7.2 25.78-5.4 24.9-3.6 23.3-2.4 21.7-1.2 19.45-0.6 17.2 0 14.4 0L14.4 0ZM7.15-31.05L7.15-18.45 12.85-18.45Q17.9-18.45 20.13-20.13 22.35-21.8 22.35-24.7L22.35-24.7Q22.35-28.2 20-29.63 17.65-31.05 13.1-31.05L13.1-31.05 7.15-31.05ZM7.15-16.55L7.15-1.9 13.8-1.9Q18.75-1.9 21.58-3.75 24.4-5.6 24.4-9.55L24.4-9.55Q24.4-13.15 21.65-14.85 18.9-16.55 13.8-16.55L13.8-16.55 7.15-16.55ZM42.6 0.6L42.6 0.6Q40.3 0.6 38.27-0.25 36.25-1.1 34.75-2.73 33.25-4.35 32.37-6.68 31.5-9 31.5-11.95L31.5-11.95Q31.5-14.9 32.37-17.25 33.25-19.6 34.72-21.23 36.2-22.85 38.07-23.73 39.95-24.6 41.95-24.6L41.95-24.6Q46.25-24.6 48.7-21.7 51.15-18.8 51.15-13.5L51.15-13.5Q51.15-13.05 51.15-12.6 51.15-12.15 51.05-11.7L51.05-11.7 33.75-11.7Q33.8-9.45 34.45-7.53 35.1-5.6 36.27-4.23 37.45-2.85 39.1-2.08 40.75-1.3 42.8-1.3L42.8-1.3Q44.75-1.3 46.32-1.88 47.9-2.45 49.25-3.45L49.25-3.45 50.15-1.75Q48.7-0.9 46.97-0.15 45.25 0.6 42.6 0.6ZM33.75-13.5L33.75-13.5 49.05-13.5Q49.05-18.15 47.15-20.43 45.25-22.7 42-22.7L42-22.7Q40.45-22.7 39.05-22.08 37.65-21.45 36.52-20.25 35.4-19.05 34.67-17.35 33.95-15.65 33.75-13.5ZM63.45 0.6L63.45 0.6Q60.75 0.6 58.5-0.38 56.25-1.35 54.65-2.7L54.65-2.7 55.95-4.35Q57.5-3.05 59.25-2.18 61-1.3 63.59-1.3L63.59-1.3Q66.45-1.3 67.87-2.73 69.3-4.15 69.3-6.05L69.3-6.05Q69.3-7.15 68.77-8 68.25-8.85 67.4-9.45 66.55-10.05 65.52-10.5 64.5-10.95 63.45-11.35L63.45-11.35Q62.09-11.85 60.72-12.4 59.34-12.95 58.25-13.73 57.15-14.5 56.47-15.58 55.8-16.65 55.8-18.2L55.8-18.2Q55.8-19.5 56.3-20.68 56.8-21.85 57.8-22.73 58.8-23.6 60.22-24.1 61.65-24.6 63.55-24.6L63.55-24.6Q65.45-24.6 67.27-23.9 69.09-23.2 70.4-22.1L70.4-22.1 69.2-20.55Q68-21.45 66.65-22.08 65.3-22.7 63.45-22.7L63.45-22.7Q62.05-22.7 61.05-22.33 60.05-21.95 59.37-21.35 58.7-20.75 58.37-19.95 58.05-19.15 58.05-18.35L58.05-18.35Q58.05-17.3 58.52-16.57 59-15.85 59.8-15.3 60.59-14.75 61.62-14.33 62.65-13.9 63.7-13.5L63.7-13.5Q65.09-12.95 66.5-12.4 67.9-11.85 69.02-11.05 70.15-10.25 70.84-9.08 71.55-7.9 71.55-6.15L71.55-6.15Q71.55-4.8 71.02-3.58 70.5-2.35 69.45-1.43 68.4-0.5 66.9 0.05 65.4 0.6 63.45 0.6ZM83.44 0.6L83.44 0.6Q81.69 0.6 80.54 0.08 79.39-0.45 78.69-1.4 77.99-2.35 77.72-3.7 77.44-5.05 77.44-6.65L77.44-6.65 77.44-22.1 73.69-22.1 73.69-23.8 77.49-24 77.79-30.95 79.69-30.95 79.69-24 86.64-24 86.64-22.1 79.69-22.1 79.69-6.45Q79.69-5.3 79.87-4.38 80.04-3.45 80.49-2.78 80.94-2.1 81.72-1.73 82.49-1.35 83.74-1.35L83.74-1.35Q84.44-1.35 85.27-1.58 86.09-1.8 86.74-2.1L86.74-2.1 87.34-0.3Q86.29 0.1 85.24 0.35 84.19 0.6 83.44 0.6ZM107.29-19.4L107.29-19.4 105.19-13.25 116.89-13.25 114.79-19.4Q113.79-22.35 112.89-25.05 111.99-27.75 111.14-30.8L111.14-30.8 110.94-30.8Q110.09-27.75 109.19-25.05 108.29-22.35 107.29-19.4ZM100.59 0L98.29 0 109.89-32.95 112.19-32.95 123.79 0 121.39 0 117.54-11.3 104.49-11.3 100.59 0ZM135.24 0.6L135.24 0.6Q131.49 0.6 129.74-1.65 127.99-3.9 127.99-8.6L127.99-8.6 127.99-24 130.19-24 130.19-8.9Q130.19-5.05 131.46-3.23 132.74-1.4 135.64-1.4L135.64-1.4Q137.79-1.4 139.54-2.58 141.29-3.75 143.39-6.3L143.39-6.3 143.39-24 145.59-24 145.59 0 143.74 0 143.49-4 143.39-4Q141.64-1.9 139.69-0.65 137.74 0.6 135.24 0.6ZM163.68 0.6L163.68 0.6Q161.33 0.6 159.36-0.25 157.38-1.1 155.91-2.7 154.43-4.3 153.61-6.63 152.78-8.95 152.78-11.95L152.78-11.95Q152.78-14.95 153.68-17.32 154.58-19.7 156.08-21.3 157.58-22.9 159.56-23.75 161.53-24.6 163.73-24.6L163.73-24.6Q166.23-24.6 167.88-23.7 169.53-22.8 170.78-21.65L170.78-21.65 169.48-20.1Q168.33-21.2 166.93-21.93 165.53-22.65 163.78-22.65L163.78-22.65Q161.93-22.65 160.36-21.88 158.78-21.1 157.61-19.68 156.43-18.25 155.76-16.3 155.08-14.35 155.08-11.95L155.08-11.95Q155.08-9.6 155.71-7.65 156.33-5.7 157.46-4.3 158.58-2.9 160.21-2.13 161.83-1.35 163.78-1.35L163.78-1.35Q165.68-1.35 167.31-2.15 168.93-2.95 170.18-4.1L170.18-4.1 171.33-2.55Q169.78-1.2 167.88-0.3 165.98 0.6 163.68 0.6ZM183.28 0.6L183.28 0.6Q181.53 0.6 180.38 0.08 179.23-0.45 178.53-1.4 177.83-2.35 177.56-3.7 177.28-5.05 177.28-6.65L177.28-6.65 177.28-22.1 173.53-22.1 173.53-23.8 177.33-24 177.63-30.95 179.53-30.95 179.53-24 186.48-24 186.48-22.1 179.53-22.1 179.53-6.45Q179.53-5.3 179.7-4.38 179.88-3.45 180.33-2.78 180.78-2.1 181.56-1.73 182.33-1.35 183.58-1.35L183.58-1.35Q184.28-1.35 185.1-1.58 185.93-1.8 186.58-2.1L186.58-2.1 187.18-0.3Q186.13 0.1 185.08 0.35 184.03 0.6 183.28 0.6ZM194.53 0L192.33 0 192.33-24 194.53-24 194.53 0ZM193.48-29.8L193.48-29.8Q192.63-29.8 192.05-30.35 191.48-30.9 191.48-31.75L191.48-31.75Q191.48-32.7 192.05-33.23 192.63-33.75 193.48-33.75L193.48-33.75Q194.33-33.75 194.9-33.23 195.48-32.7 195.48-31.75L195.48-31.75Q195.48-30.9 194.9-30.35 194.33-29.8 193.48-29.8ZM212.52 0.6L212.52 0.6Q210.37 0.6 208.42-0.25 206.47-1.1 205-2.7 203.52-4.3 202.65-6.63 201.77-8.95 201.77-11.95L201.77-11.95Q201.77-14.95 202.65-17.32 203.52-19.7 205-21.3 206.47-22.9 208.42-23.75 210.37-24.6 212.52-24.6L212.52-24.6Q214.67-24.6 216.65-23.75 218.63-22.9 220.1-21.3 221.57-19.7 222.45-17.32 223.32-14.95 223.32-11.95L223.32-11.95Q223.32-8.95 222.45-6.63 221.57-4.3 220.1-2.7 218.63-1.1 216.65-0.25 214.67 0.6 212.52 0.6ZM212.52-1.35L212.52-1.35Q214.32-1.35 215.9-2.13 217.47-2.9 218.6-4.3 219.72-5.7 220.38-7.65 221.02-9.6 221.02-11.95L221.02-11.95Q221.02-14.35 220.38-16.3 219.72-18.25 218.6-19.68 217.47-21.1 215.9-21.88 214.32-22.65 212.52-22.65L212.52-22.65Q210.72-22.65 209.17-21.88 207.62-21.1 206.5-19.68 205.37-18.25 204.72-16.3 204.07-14.35 204.07-11.95L204.07-11.95Q204.07-9.6 204.72-7.65 205.37-5.7 206.5-4.3 207.62-2.9 209.17-2.13 210.72-1.35 212.52-1.35ZM232.72 0L230.52 0 230.52-24 232.42-24 232.62-20.3 232.77-20.3Q234.62-22.15 236.57-23.38 238.52-24.6 241.02-24.6L241.02-24.6Q244.77-24.6 246.52-22.35 248.27-20.1 248.27-15.4L248.27-15.4 248.27 0 246.07 0 246.07-15.1Q246.07-18.95 244.8-20.78 243.52-22.6 240.57-22.6L240.57-22.6Q238.42-22.6 236.67-21.48 234.92-20.35 232.72-18.1L232.72-18.1 232.72 0ZM272.37 0.6L272.37 0.6Q270.92 0.6 269.67 0.2 268.42-0.2 267.47-1 266.52-1.8 265.97-3.05 265.42-4.3 265.42-6L265.42-6Q265.42-10 269.14-12.08 272.87-14.15 280.92-15.05L280.92-15.05Q280.92-16.4 280.72-17.78 280.52-19.15 279.87-20.23 279.22-21.3 278.12-21.98 277.02-22.65 275.22-22.65L275.22-22.65Q272.82-22.65 270.82-21.7 268.82-20.75 267.57-19.85L267.57-19.85 266.57-21.5Q267.22-21.95 268.14-22.5 269.07-23.05 270.22-23.5 271.37-23.95 272.72-24.28 274.07-24.6 275.52-24.6L275.52-24.6Q277.62-24.6 279.07-23.88 280.52-23.15 281.42-21.9 282.32-20.65 282.72-18.98 283.12-17.3 283.12-15.35L283.12-15.35 283.12 0 281.22 0 281.02-3.1 280.87-3.1Q279.02-1.65 276.89-0.53 274.77 0.6 272.37 0.6ZM272.77-1.3L272.77-1.3Q274.87-1.3 276.77-2.3 278.67-3.3 280.92-5.2L280.92-5.2 280.92-13.35Q277.22-12.9 274.67-12.25 272.12-11.6 270.57-10.7 269.02-9.8 268.34-8.65 267.67-7.5 267.67-6.1L267.67-6.1Q267.67-4.8 268.07-3.9 268.47-3 269.17-2.43 269.87-1.85 270.79-1.58 271.72-1.3 272.77-1.3ZM293.87 0L291.67 0 291.67-24 293.56-24 293.76-20.3 293.92-20.3Q295.76-22.15 297.71-23.38 299.67-24.6 302.17-24.6L302.17-24.6Q305.92-24.6 307.67-22.35 309.42-20.1 309.42-15.4L309.42-15.4 309.42 0 307.21 0 307.21-15.1Q307.21-18.95 305.94-20.78 304.67-22.6 301.71-22.6L301.71-22.6Q299.56-22.6 297.81-21.48 296.06-20.35 293.87-18.1L293.87-18.1 293.87 0ZM326.21 0.6L326.21 0.6Q321.66 0.6 318.96-2.63 316.26-5.85 316.26-11.95L316.26-11.95Q316.26-14.85 317.11-17.2 317.96-19.55 319.44-21.2 320.91-22.85 322.84-23.73 324.76-24.6 326.91-24.6L326.91-24.6Q329.11-24.6 330.74-23.83 332.36-23.05 334.16-21.65L334.16-21.65 334.06-26.05 334.06-35.95 336.26-35.95 336.26 0 334.36 0 334.16-3.1 334.01-3.1Q332.56-1.65 330.59-0.53 328.61 0.6 326.21 0.6ZM326.51-1.35L326.51-1.35Q328.51-1.35 330.34-2.38 332.16-3.4 334.06-5.3L334.06-5.3 334.06-19.55Q332.16-21.25 330.49-21.95 328.81-22.65 327.06-22.65L327.06-22.65Q325.26-22.65 323.71-21.83 322.16-21 321.04-19.58 319.91-18.15 319.26-16.18 318.61-14.2 318.61-11.95L318.61-11.95Q318.61-9.55 319.14-7.6 319.66-5.65 320.66-4.28 321.66-2.9 323.14-2.13 324.61-1.35 326.51-1.35ZM365.26 0L355.71 0 355.71-32.95 364.61-32.95Q369.61-32.95 372.56-31.03 375.51-29.1 375.51-24.95L375.51-24.95Q375.51-22.35 374.21-20.43 372.91-18.5 370.41-17.75L370.41-17.75 370.41-17.55Q373.61-17 375.56-15.03 377.51-13.05 377.51-9.6L377.51-9.6Q377.51-7.2 376.63-5.4 375.76-3.6 374.16-2.4 372.56-1.2 370.31-0.6 368.06 0 365.26 0L365.26 0ZM358.01-31.05L358.01-18.45 363.71-18.45Q368.76-18.45 370.98-20.13 373.21-21.8 373.21-24.7L373.21-24.7Q373.21-28.2 370.86-29.63 368.51-31.05 363.96-31.05L363.96-31.05 358.01-31.05ZM358.01-16.55L358.01-1.9 364.66-1.9Q369.61-1.9 372.43-3.75 375.26-5.6 375.26-9.55L375.26-9.55Q375.26-13.15 372.51-14.85 369.76-16.55 364.66-16.55L364.66-16.55 358.01-16.55ZM386.56 0L384.36 0 384.36-24 386.56-24 386.56 0ZM385.5-29.8L385.5-29.8Q384.65-29.8 384.08-30.35 383.5-30.9 383.5-31.75L383.5-31.75Q383.5-32.7 384.08-33.23 384.65-33.75 385.5-33.75L385.5-33.75Q386.36-33.75 386.93-33.23 387.5-32.7 387.5-31.75L387.5-31.75Q387.5-30.9 386.93-30.35 386.36-29.8 385.5-29.8ZM403.75 0.6L403.75 0.6Q399.2 0.6 396.5-2.63 393.8-5.85 393.8-11.95L393.8-11.95Q393.8-14.85 394.65-17.2 395.5-19.55 396.98-21.2 398.45-22.85 400.38-23.73 402.3-24.6 404.45-24.6L404.45-24.6Q406.65-24.6 408.28-23.83 409.9-23.05 411.7-21.65L411.7-21.65 411.6-26.05 411.6-35.95 413.8-35.95 413.8 0 411.9 0 411.7-3.1 411.55-3.1Q410.1-1.65 408.13-0.53 406.15 0.6 403.75 0.6ZM404.05-1.35L404.05-1.35Q406.05-1.35 407.88-2.38 409.7-3.4 411.6-5.3L411.6-5.3 411.6-19.55Q409.7-21.25 408.03-21.95 406.35-22.65 404.6-22.65L404.6-22.65Q402.8-22.65 401.25-21.83 399.7-21 398.58-19.58 397.45-18.15 396.8-16.18 396.15-14.2 396.15-11.95L396.15-11.95Q396.15-9.55 396.68-7.6 397.2-5.65 398.2-4.28 399.2-2.9 400.68-2.13 402.15-1.35 404.05-1.35ZM430.95 0.6L430.95 0.6Q426.4 0.6 423.7-2.63 421-5.85 421-11.95L421-11.95Q421-14.85 421.85-17.2 422.7-19.55 424.17-21.2 425.65-22.85 427.57-23.73 429.5-24.6 431.65-24.6L431.65-24.6Q433.85-24.6 435.47-23.83 437.1-23.05 438.9-21.65L438.9-21.65 438.8-26.05 438.8-35.95 441-35.95 441 0 439.1 0 438.9-3.1 438.75-3.1Q437.3-1.65 435.32-0.53 433.35 0.6 430.95 0.6ZM431.25-1.35L431.25-1.35Q433.25-1.35 435.07-2.38 436.9-3.4 438.8-5.3L438.8-5.3 438.8-19.55Q436.9-21.25 435.22-21.95 433.55-22.65 431.8-22.65L431.8-22.65Q430-22.65 428.45-21.83 426.9-21 425.77-19.58 424.65-18.15 424-16.18 423.35-14.2 423.35-11.95L423.35-11.95Q423.35-9.55 423.88-7.6 424.4-5.65 425.4-4.28 426.4-2.9 427.88-2.13 429.35-1.35 431.25-1.35ZM452.4 0L450.2 0 450.2-24 452.4-24 452.4 0ZM451.35-29.8L451.35-29.8Q450.5-29.8 449.92-30.35 449.35-30.9 449.35-31.75L449.35-31.75Q449.35-32.7 449.92-33.23 450.5-33.75 451.35-33.75L451.35-33.75Q452.2-33.75 452.77-33.23 453.35-32.7 453.35-31.75L453.35-31.75Q453.35-30.9 452.77-30.35 452.2-29.8 451.35-29.8ZM463.84 0L461.64 0 461.64-24 463.54-24 463.74-20.3 463.89-20.3Q465.74-22.15 467.69-23.38 469.64-24.6 472.14-24.6L472.14-24.6Q475.89-24.6 477.64-22.35 479.39-20.1 479.39-15.4L479.39-15.4 479.39 0 477.19 0 477.19-15.1Q477.19-18.95 475.92-20.78 474.64-22.6 471.69-22.6L471.69-22.6Q469.54-22.6 467.79-21.48 466.04-20.35 463.84-18.1L463.84-18.1 463.84 0ZM496.09 11.55L496.09 11.55Q491.54 11.55 488.89 9.75 486.24 7.95 486.24 4.9L486.24 4.9Q486.24 3.3 487.19 1.8 488.14 0.3 489.79-0.9L489.79-0.9 489.79-1.1Q488.89-1.65 488.29-2.6 487.69-3.55 487.69-4.95L487.69-4.95Q487.69-6.55 488.59-7.68 489.49-8.8 490.29-9.35L490.29-9.35 490.29-9.55Q489.14-10.55 488.22-12.25 487.29-13.95 487.29-16.15L487.29-16.15Q487.29-18 487.94-19.55 488.59-21.1 489.74-22.23 490.89-23.35 492.44-23.98 493.99-24.6 495.74-24.6L495.74-24.6Q496.74-24.6 497.54-24.43 498.34-24.25 498.89-24L498.89-24 507.04-24 507.04-22.15 501.44-22.15Q502.59-21.15 503.34-19.58 504.09-18 504.09-16.1L504.09-16.1Q504.09-14.25 503.44-12.7 502.79-11.15 501.67-10.03 500.54-8.9 499.02-8.28 497.49-7.65 495.74-7.65L495.74-7.65Q494.74-7.65 493.67-7.9 492.59-8.15 491.74-8.65L491.74-8.65Q490.94-8 490.37-7.2 489.79-6.4 489.79-5.2L489.79-5.2Q489.79-3.9 490.74-2.98 491.69-2.05 494.39-2.05L494.39-2.05 499.54-2.05Q503.59-2.05 505.52-0.73 507.44 0.6 507.44 3.45L507.44 3.45Q507.44 5 506.64 6.48 505.84 7.95 504.37 9.08 502.89 10.2 500.79 10.88 498.69 11.55 496.09 11.55ZM495.74-9.4L495.74-9.4Q496.99-9.4 498.12-9.88 499.24-10.35 500.09-11.25 500.94-12.15 501.44-13.4 501.94-14.65 501.94-16.15L501.94-16.15Q501.94-17.65 501.44-18.9 500.94-20.15 500.12-21 499.29-21.85 498.14-22.33 496.99-22.8 495.74-22.8L495.74-22.8Q494.44-22.8 493.32-22.33 492.19-21.85 491.34-21 490.49-20.15 489.99-18.93 489.49-17.7 489.49-16.15L489.49-16.15Q489.49-14.65 489.99-13.4 490.49-12.15 491.37-11.25 492.24-10.35 493.37-9.88 494.49-9.4 495.74-9.4ZM496.34 9.75L496.34 9.75Q498.34 9.75 499.99 9.22 501.64 8.7 502.79 7.85 503.94 7 504.57 5.93 505.19 4.85 505.19 3.7L505.19 3.7Q505.19 1.7 503.77 0.88 502.34 0.05 499.64 0.05L499.64 0.05 494.49 0.05Q494.09 0.05 493.27-0.03 492.44-0.1 491.49-0.35L491.49-0.35Q489.84 0.8 489.09 2.1 488.34 3.4 488.34 4.7L488.34 4.7Q488.34 6.95 490.42 8.35 492.49 9.75 496.34 9.75ZM524.79 10.85L522.59 10.85 522.59-24 524.49-24 524.69-21 524.84-21Q526.59-22.4 528.66-23.5 530.74-24.6 532.99-24.6L532.99-24.6Q537.79-24.6 540.19-21.28 542.59-17.95 542.59-12.35L542.59-12.35Q542.59-9.3 541.74-6.9 540.89-4.5 539.41-2.83 537.94-1.15 536.01-0.28 534.09 0.6 531.99 0.6L531.99 0.6Q530.29 0.6 528.49-0.18 526.69-0.95 524.79-2.35L524.79-2.35 524.79 10.85ZM531.89-1.35L531.89-1.35Q533.69-1.35 535.24-2.15 536.79-2.95 537.89-4.4 538.99-5.85 539.61-7.88 540.24-9.9 540.24-12.35L540.24-12.35Q540.24-14.55 539.81-16.45 539.39-18.35 538.49-19.73 537.59-21.1 536.14-21.88 534.69-22.65 532.64-22.65L532.64-22.65Q530.84-22.65 528.91-21.63 526.99-20.6 524.79-18.7L524.79-18.7 524.79-4.45Q526.89-2.75 528.69-2.05 530.49-1.35 531.89-1.35ZM552.73 0.6L552.73 0.6Q549.78 0.6 549.78-3.2L549.78-3.2 549.78-35.95 551.98-35.95 551.98-2.9Q551.98-2.1 552.28-1.73 552.58-1.35 553.03-1.35L553.03-1.35Q553.18-1.35 553.36-1.35 553.53-1.35 553.93-1.45L553.93-1.45 554.33 0.35Q553.98 0.45 553.63 0.53 553.28 0.6 552.73 0.6ZM566.88 0.6L566.88 0.6Q565.43 0.6 564.18 0.2 562.93-0.2 561.98-1 561.03-1.8 560.48-3.05 559.93-4.3 559.93-6L559.93-6Q559.93-10 563.66-12.08 567.38-14.15 575.43-15.05L575.43-15.05Q575.43-16.4 575.23-17.78 575.03-19.15 574.38-20.23 573.73-21.3 572.63-21.98 571.53-22.65 569.73-22.65L569.73-22.65Q567.33-22.65 565.33-21.7 563.33-20.75 562.08-19.85L562.08-19.85 561.08-21.5Q561.73-21.95 562.66-22.5 563.58-23.05 564.73-23.5 565.88-23.95 567.23-24.28 568.58-24.6 570.03-24.6L570.03-24.6Q572.13-24.6 573.58-23.88 575.03-23.15 575.93-21.9 576.83-20.65 577.23-18.98 577.63-17.3 577.63-15.35L577.63-15.35 577.63 0 575.73 0 575.53-3.1 575.38-3.1Q573.53-1.65 571.41-0.53 569.28 0.6 566.88 0.6ZM567.28-1.3L567.28-1.3Q569.38-1.3 571.28-2.3 573.18-3.3 575.43-5.2L575.43-5.2 575.43-13.35Q571.73-12.9 569.18-12.25 566.63-11.6 565.08-10.7 563.53-9.8 562.86-8.65 562.18-7.5 562.18-6.1L562.18-6.1Q562.18-4.8 562.58-3.9 562.98-3 563.68-2.43 564.38-1.85 565.31-1.58 566.23-1.3 567.28-1.3ZM592.18 0.6L592.18 0.6Q590.43 0.6 589.28 0.08 588.13-0.45 587.43-1.4 586.73-2.35 586.45-3.7 586.18-5.05 586.18-6.65L586.18-6.65 586.18-22.1 582.43-22.1 582.43-23.8 586.23-24 586.53-30.95 588.43-30.95 588.43-24 595.38-24 595.38-22.1 588.43-22.1 588.43-6.45Q588.43-5.3 588.6-4.38 588.78-3.45 589.23-2.78 589.68-2.1 590.45-1.73 591.23-1.35 592.48-1.35L592.48-1.35Q593.18-1.35 594-1.58 594.83-1.8 595.48-2.1L595.48-2.1 596.08-0.3Q595.03 0.1 593.98 0.35 592.93 0.6 592.18 0.6ZM603.78 0L601.58 0 601.58-22.1 598.28-22.1 598.28-23.8 601.58-24 601.58-29.35Q601.58-32.95 603.13-34.75 604.68-36.55 607.53-36.55L607.53-36.55Q609.28-36.55 611.03-35.75L611.03-35.75 610.43-33.95Q609.68-34.35 608.95-34.5 608.23-34.65 607.53-34.65L607.53-34.65Q605.63-34.65 604.7-33.25 603.78-31.85 603.78-29.2L603.78-29.2 603.78-24 609.33-24 609.33-22.1 603.78-22.1 603.78 0ZM622.62 0.6L622.62 0.6Q620.47 0.6 618.52-0.25 616.57-1.1 615.1-2.7 613.62-4.3 612.75-6.63 611.87-8.95 611.87-11.95L611.87-11.95Q611.87-14.95 612.75-17.32 613.62-19.7 615.1-21.3 616.57-22.9 618.52-23.75 620.47-24.6 622.62-24.6L622.62-24.6Q624.77-24.6 626.75-23.75 628.72-22.9 630.2-21.3 631.67-19.7 632.55-17.32 633.42-14.95 633.42-11.95L633.42-11.95Q633.42-8.95 632.55-6.63 631.67-4.3 630.2-2.7 628.72-1.1 626.75-0.25 624.77 0.6 622.62 0.6ZM622.62-1.35L622.62-1.35Q624.42-1.35 626-2.13 627.57-2.9 628.7-4.3 629.82-5.7 630.47-7.65 631.12-9.6 631.12-11.95L631.12-11.95Q631.12-14.35 630.47-16.3 629.82-18.25 628.7-19.68 627.57-21.1 626-21.88 624.42-22.65 622.62-22.65L622.62-22.65Q620.82-22.65 619.27-21.88 617.72-21.1 616.6-19.68 615.47-18.25 614.82-16.3 614.17-14.35 614.17-11.95L614.17-11.95Q614.17-9.6 614.82-7.65 615.47-5.7 616.6-4.3 617.72-2.9 619.27-2.13 620.82-1.35 622.62-1.35ZM642.82 0L640.62 0 640.62-24 642.52-24 642.72-19.55 642.87-19.55Q644.07-21.8 645.8-23.2 647.52-24.6 649.67-24.6L649.67-24.6Q650.37-24.6 650.92-24.5 651.47-24.4 652.07-24.1L652.07-24.1 651.57-22.1Q650.97-22.35 650.52-22.43 650.07-22.5 649.37-22.5L649.37-22.5Q647.77-22.5 646-21.13 644.22-19.75 642.82-16.35L642.82-16.35 642.82 0ZM658.67 0L656.47 0 656.47-24 658.37-24 658.57-20.3 658.72-20.3Q660.32-22.15 662.29-23.38 664.27-24.6 666.27-24.6L666.27-24.6Q669.17-24.6 670.72-23.28 672.27-21.95 672.92-19.7L672.92-19.7Q675.02-21.95 676.99-23.28 678.97-24.6 681.07-24.6L681.07-24.6Q688.27-24.6 688.27-15.4L688.27-15.4 688.27 0 686.02 0 686.02-15.1Q686.02-18.95 684.72-20.78 683.42-22.6 680.67-22.6L680.67-22.6Q677.42-22.6 673.47-18.1L673.47-18.1 673.47 0 671.27 0 671.27-15.1Q671.27-18.95 669.97-20.78 668.67-22.6 665.87-22.6L665.87-22.6Q662.62-22.6 658.67-18.1L658.67-18.1 658.67 0ZM715.81 0.6L715.81 0.6Q713.66 0.6 711.71-0.25 709.76-1.1 708.29-2.7 706.81-4.3 705.94-6.63 705.06-8.95 705.06-11.95L705.06-11.95Q705.06-14.95 705.94-17.32 706.81-19.7 708.29-21.3 709.76-22.9 711.71-23.75 713.66-24.6 715.81-24.6L715.81-24.6Q717.96-24.6 719.94-23.75 721.91-22.9 723.39-21.3 724.86-19.7 725.74-17.32 726.61-14.95 726.61-11.95L726.61-11.95Q726.61-8.95 725.74-6.63 724.86-4.3 723.39-2.7 721.91-1.1 719.94-0.25 717.96 0.6 715.81 0.6ZM715.81-1.35L715.81-1.35Q717.61-1.35 719.19-2.13 720.76-2.9 721.89-4.3 723.01-5.7 723.66-7.65 724.31-9.6 724.31-11.95L724.31-11.95Q724.31-14.35 723.66-16.3 723.01-18.25 721.89-19.68 720.76-21.1 719.19-21.88 717.61-22.65 715.81-22.65L715.81-22.65Q714.01-22.65 712.46-21.88 710.91-21.1 709.79-19.68 708.66-18.25 708.01-16.3 707.36-14.35 707.36-11.95L707.36-11.95Q707.36-9.6 708.01-7.65 708.66-5.7 709.79-4.3 710.91-2.9 712.46-2.13 714.01-1.35 715.81-1.35ZM736.01 0L733.81 0 733.81-24 735.71-24 735.91-20.3 736.06-20.3Q737.91-22.15 739.86-23.38 741.81-24.6 744.31-24.6L744.31-24.6Q748.06-24.6 749.81-22.35 751.56-20.1 751.56-15.4L751.56-15.4 751.56 0 749.36 0 749.36-15.1Q749.36-18.95 748.09-20.78 746.81-22.6 743.86-22.6L743.86-22.6Q741.71-22.6 739.96-21.48 738.21-20.35 736.01-18.1L736.01-18.1 736.01 0ZM763.36 0.6L763.36 0.6Q760.41 0.6 760.41-3.2L760.41-3.2 760.41-35.95 762.61-35.95 762.61-2.9Q762.61-2.1 762.91-1.73 763.21-1.35 763.66-1.35L763.66-1.35Q763.81-1.35 763.98-1.35 764.16-1.35 764.56-1.45L764.56-1.45 764.96 0.35Q764.61 0.45 764.26 0.53 763.91 0.6 763.36 0.6ZM774.46 0L772.26 0 772.26-24 774.46-24 774.46 0ZM773.41-29.8L773.41-29.8Q772.56-29.8 771.98-30.35 771.41-30.9 771.41-31.75L771.41-31.75Q771.41-32.7 771.98-33.23 772.56-33.75 773.41-33.75L773.41-33.75Q774.26-33.75 774.83-33.23 775.41-32.7 775.41-31.75L775.41-31.75Q775.41-30.9 774.83-30.35 774.26-29.8 773.41-29.8ZM785.9 0L783.7 0 783.7-24 785.6-24 785.8-20.3 785.95-20.3Q787.8-22.15 789.75-23.38 791.7-24.6 794.2-24.6L794.2-24.6Q797.95-24.6 799.7-22.35 801.45-20.1 801.45-15.4L801.45-15.4 801.45 0 799.25 0 799.25-15.1Q799.25-18.95 797.98-20.78 796.7-22.6 793.75-22.6L793.75-22.6Q791.6-22.6 789.85-21.48 788.1-20.35 785.9-18.1L785.9-18.1 785.9 0ZM819.4 0.6L819.4 0.6Q817.1 0.6 815.08-0.25 813.05-1.1 811.55-2.73 810.05-4.35 809.18-6.68 808.3-9 808.3-11.95L808.3-11.95Q808.3-14.9 809.18-17.25 810.05-19.6 811.53-21.23 813-22.85 814.88-23.73 816.75-24.6 818.75-24.6L818.75-24.6Q823.05-24.6 825.5-21.7 827.95-18.8 827.95-13.5L827.95-13.5Q827.95-13.05 827.95-12.6 827.95-12.15 827.85-11.7L827.85-11.7 810.55-11.7Q810.6-9.45 811.25-7.53 811.9-5.6 813.08-4.23 814.25-2.85 815.9-2.08 817.55-1.3 819.6-1.3L819.6-1.3Q821.55-1.3 823.13-1.88 824.7-2.45 826.05-3.45L826.05-3.45 826.95-1.75Q825.5-0.9 823.78-0.15 822.05 0.6 819.4 0.6ZM810.55-13.5L810.55-13.5 825.85-13.5Q825.85-18.15 823.95-20.43 822.05-22.7 818.8-22.7L818.8-22.7Q817.25-22.7 815.85-22.08 814.45-21.45 813.33-20.25 812.2-19.05 811.48-17.35 810.75-15.65 810.55-13.5ZM849.7 0.6L849.7 0.6Q848.25 0.6 847 0.2 845.75-0.2 844.8-1 843.85-1.8 843.3-3.05 842.75-4.3 842.75-6L842.75-6Q842.75-10 846.47-12.08 850.2-14.15 858.25-15.05L858.25-15.05Q858.25-16.4 858.05-17.78 857.85-19.15 857.2-20.23 856.55-21.3 855.45-21.98 854.35-22.65 852.55-22.65L852.55-22.65Q850.15-22.65 848.15-21.7 846.15-20.75 844.9-19.85L844.9-19.85 843.9-21.5Q844.55-21.95 845.47-22.5 846.4-23.05 847.55-23.5 848.7-23.95 850.05-24.28 851.4-24.6 852.85-24.6L852.85-24.6Q854.95-24.6 856.4-23.88 857.85-23.15 858.75-21.9 859.65-20.65 860.05-18.98 860.45-17.3 860.45-15.35L860.45-15.35 860.45 0 858.55 0 858.35-3.1 858.2-3.1Q856.35-1.65 854.22-0.53 852.1 0.6 849.7 0.6ZM850.1-1.3L850.1-1.3Q852.2-1.3 854.1-2.3 856-3.3 858.25-5.2L858.25-5.2 858.25-13.35Q854.55-12.9 852-12.25 849.45-11.6 847.9-10.7 846.35-9.8 845.67-8.65 845-7.5 845-6.1L845-6.1Q845-4.8 845.4-3.9 845.8-3 846.5-2.43 847.2-1.85 848.12-1.58 849.05-1.3 850.1-1.3ZM876.59 0L873.99 0 864.99-24 867.39-24 872.79-8.95Q873.34-7.2 873.99-5.45 874.64-3.7 875.19-2.05L875.19-2.05 875.39-2.05Q875.99-3.7 876.62-5.45 877.24-7.2 877.84-8.95L877.84-8.95 883.24-24 885.49-24 876.59 0ZM894.94 0.6L894.94 0.6Q893.49 0.6 892.24 0.2 890.99-0.2 890.04-1 889.09-1.8 888.54-3.05 887.99-4.3 887.99-6L887.99-6Q887.99-10 891.72-12.08 895.44-14.15 903.49-15.05L903.49-15.05Q903.49-16.4 903.29-17.78 903.09-19.15 902.44-20.23 901.79-21.3 900.69-21.98 899.59-22.65 897.79-22.65L897.79-22.65Q895.39-22.65 893.39-21.7 891.39-20.75 890.14-19.85L890.14-19.85 889.14-21.5Q889.79-21.95 890.72-22.5 891.64-23.05 892.79-23.5 893.94-23.95 895.29-24.28 896.64-24.6 898.09-24.6L898.09-24.6Q900.19-24.6 901.64-23.88 903.09-23.15 903.99-21.9 904.89-20.65 905.29-18.98 905.69-17.3 905.69-15.35L905.69-15.35 905.69 0 903.79 0 903.59-3.1 903.44-3.1Q901.59-1.65 899.47-0.53 897.34 0.6 894.94 0.6ZM895.34-1.3L895.34-1.3Q897.44-1.3 899.34-2.3 901.24-3.3 903.49-5.2L903.49-5.2 903.49-13.35Q899.79-12.9 897.24-12.25 894.69-11.6 893.14-10.7 891.59-9.8 890.92-8.65 890.24-7.5 890.24-6.1L890.24-6.1Q890.24-4.8 890.64-3.9 891.04-3 891.74-2.43 892.44-1.85 893.37-1.58 894.29-1.3 895.34-1.3ZM916.44 0L914.24 0 914.24-24 916.44-24 916.44 0ZM915.39-29.8L915.39-29.8Q914.54-29.8 913.96-30.35 913.39-30.9 913.39-31.75L913.39-31.75Q913.39-32.7 913.96-33.23 914.54-33.75 915.39-33.75L915.39-33.75Q916.24-33.75 916.81-33.23 917.39-32.7 917.39-31.75L917.39-31.75Q917.39-30.9 916.81-30.35 916.24-29.8 915.39-29.8ZM928.64 0.6L928.64 0.6Q925.69 0.6 925.69-3.2L925.69-3.2 925.69-35.95 927.89-35.95 927.89-2.9Q927.89-2.1 928.19-1.73 928.49-1.35 928.94-1.35L928.94-1.35Q929.09-1.35 929.26-1.35 929.44-1.35 929.84-1.45L929.84-1.45 930.24 0.35Q929.89 0.45 929.54 0.53 929.19 0.6 928.64 0.6ZM942.78 0.6L942.78 0.6Q941.33 0.6 940.08 0.2 938.83-0.2 937.88-1 936.93-1.8 936.38-3.05 935.83-4.3 935.83-6L935.83-6Q935.83-10 939.56-12.08 943.28-14.15 951.33-15.05L951.33-15.05Q951.33-16.4 951.13-17.78 950.93-19.15 950.28-20.23 949.63-21.3 948.53-21.98 947.43-22.65 945.63-22.65L945.63-22.65Q943.23-22.65 941.23-21.7 939.23-20.75 937.98-19.85L937.98-19.85 936.98-21.5Q937.63-21.95 938.56-22.5 939.48-23.05 940.63-23.5 941.78-23.95 943.13-24.28 944.48-24.6 945.93-24.6L945.93-24.6Q948.03-24.6 949.48-23.88 950.93-23.15 951.83-21.9 952.73-20.65 953.13-18.98 953.53-17.3 953.53-15.35L953.53-15.35 953.53 0 951.63 0 951.43-3.1 951.28-3.1Q949.43-1.65 947.31-0.53 945.18 0.6 942.78 0.6ZM943.18-1.3L943.18-1.3Q945.28-1.3 947.18-2.3 949.08-3.3 951.33-5.2L951.33-5.2 951.33-13.35Q947.63-12.9 945.08-12.25 942.53-11.6 940.98-10.7 939.43-9.8 938.76-8.65 938.08-7.5 938.08-6.1L938.08-6.1Q938.08-4.8 938.48-3.9 938.88-3 939.58-2.43 940.28-1.85 941.21-1.58 942.13-1.3 943.18-1.3ZM971.48 0.6L971.48 0.6Q969.73 0.6 967.86-0.23 965.98-1.05 964.28-2.45L964.28-2.45 964.18-2.45 963.93 0 962.08 0 962.08-35.95 964.28-35.95 964.28-25.55 964.18-20.85Q966.03-22.4 968.13-23.5 970.23-24.6 972.48-24.6L972.48-24.6Q977.28-24.6 979.68-21.28 982.08-17.95 982.08-12.35L982.08-12.35Q982.08-9.3 981.23-6.9 980.38-4.5 978.91-2.83 977.43-1.15 975.51-0.28 973.58 0.6 971.48 0.6ZM971.38-1.35L971.38-1.35Q973.18-1.35 974.73-2.15 976.28-2.95 977.38-4.4 978.48-5.85 979.11-7.88 979.73-9.9 979.73-12.35L979.73-12.35Q979.73-14.55 979.31-16.45 978.88-18.35 977.98-19.73 977.08-21.1 975.63-21.88 974.18-22.65 972.13-22.65L972.13-22.65Q970.33-22.65 968.38-21.63 966.43-20.6 964.28-18.7L964.28-18.7 964.28-4.45Q966.28-2.75 968.13-2.05 969.98-1.35 971.38-1.35ZM992.13 0.6L992.13 0.6Q989.18 0.6 989.18-3.2L989.18-3.2 989.18-35.95 991.38-35.95 991.38-2.9Q991.38-2.1 991.68-1.73 991.98-1.35 992.43-1.35L992.43-1.35Q992.58-1.35 992.75-1.35 992.93-1.35 993.33-1.45L993.33-1.45 993.73 0.35Q993.38 0.45 993.03 0.53 992.68 0.6 992.13 0.6ZM1010.13 0.6L1010.13 0.6Q1007.83 0.6 1005.8-0.25 1003.78-1.1 1002.28-2.73 1000.78-4.35 999.9-6.68 999.03-9 999.03-11.95L999.03-11.95Q999.03-14.9 999.9-17.25 1000.78-19.6 1002.25-21.23 1003.73-22.85 1005.6-23.73 1007.48-24.6 1009.48-24.6L1009.48-24.6Q1013.78-24.6 1016.23-21.7 1018.68-18.8 1018.68-13.5L1018.68-13.5Q1018.68-13.05 1018.68-12.6 1018.68-12.15 1018.58-11.7L1018.58-11.7 1001.28-11.7Q1001.33-9.45 1001.98-7.53 1002.63-5.6 1003.8-4.23 1004.98-2.85 1006.63-2.08 1008.28-1.3 1010.33-1.3L1010.33-1.3Q1012.28-1.3 1013.85-1.88 1015.43-2.45 1016.78-3.45L1016.78-3.45 1017.68-1.75Q1016.23-0.9 1014.5-0.15 1012.78 0.6 1010.13 0.6ZM1001.28-13.5L1001.28-13.5 1016.58-13.5Q1016.58-18.15 1014.68-20.43 1012.78-22.7 1009.53-22.7L1009.53-22.7Q1007.98-22.7 1006.58-22.08 1005.18-21.45 1004.05-20.25 1002.93-19.05 1002.2-17.35 1001.48-15.65 1001.28-13.5Z" opacity="1" transform="matrix(1,0,0,1,0,0)" fill="#111111" class="slogan-text-1" data-fill-palette-color="secondary" id="text-1"></path></svg></g></svg></g></svg></g></svg></g><g transform="matrix(1,0,0,1,0,0.16673741706891576)"><svg viewBox="0 0 63.67435177994763 66.6949668275682" height="66.6949668275682" width="63.67435177994763"><g><svg version="1.0" xmlns="http://www.w3.org/2000/svg" xmlns:xlink="http://www.w3.org/1999/xlink" x="0" y="0" viewBox="0 0 95.471 100" enable-background="new 0 0 95.471 100" xml:space="preserve" id="icon-0" width="63.67435177994763" height="66.6949668275682" class="icon-icon-0" data-fill-palette-color="accent"><path d="M47.735 0C47.652 2.825 45.997 13.412 27.936 30.934 10.554 47.797 2.439 49.824 0 50 2.439 50.178 10.554 52.204 27.936 69.066 45.997 86.589 47.652 97.177 47.735 100 47.818 97.177 49.474 86.589 67.533 69.066 84.917 52.204 93.031 50.178 95.471 50 93.032 49.824 84.917 47.797 67.533 30.934 49.475 13.412 47.819 2.825 47.735 0" fill="#111111" data-fill-palette-color="accent"></path></svg></g></svg></g></svg></g><defs></defs></svg><rect width="395.52" height="54.71565201345361" fill="none" stroke="none" visibility="hidden"></rect></g></svg></g></svg>